HIERARCHY
ROOT Hips
{
 OFFSET 0.000000 0.000000 0.000000
 CHANNELS 6 Xposition Yposition Zposition Yrotation Xrotation Zrotation
 JOINT Chest
 {
  OFFSET 0.000000 10.080317 -0.001081
  CHANNELS 3 Yrotation Xrotation Zrotation
  JOINT Chest2
  {
   OFFSET 0.000000 11.096852 0.001963
   CHANNELS 3 Yrotation Xrotation Zrotation
   JOINT Chest3
   {
    OFFSET 0.000000 10.026525 0.000000
    CHANNELS 3 Yrotation Xrotation Zrotation
    JOINT Chest4
    {
     OFFSET 0.000000 10.026525 0.000000
     CHANNELS 3 Yrotation Xrotation Zrotation
     JOINT Neck
     {
      OFFSET 0.000000 14.108171 0.000000
      CHANNELS 3 Yrotation Xrotation Zrotation
      JOINT Head
      {
       OFFSET 0.000000 9.333493 0.004668
       CHANNELS 3 Yrotation Xrotation Zrotation
       End Site
       {
        OFFSET 0.000000 17.851786 0.002438
       }
      }
     }
     JOINT RightCollar
     {
      OFFSET -3.071622 7.873185 0.000000
      CHANNELS 3 Yrotation Xrotation Zrotation
      JOINT RightShoulder
      {
       OFFSET -14.378659 0.000000 0.000000
       CHANNELS 3 Yrotation Xrotation Zrotation
       JOINT RightElbow
       {
        OFFSET -30.778728 0.000000 0.000000
        CHANNELS 3 Yrotation Xrotation Zrotation
        JOINT RightWrist
        {
         OFFSET -25.164217 0.000000 0.000000
         CHANNELS 3 Yrotation Xrotation Zrotation
         End Site
         {
          OFFSET -18.796788 0.000000 0.000000
         }
        }
       }
      }
     }
     JOINT LeftCollar
     {
      OFFSET 3.071622 7.873185 0.000000
      CHANNELS 3 Yrotation Xrotation Zrotation
      JOINT LeftShoulder
      {
       OFFSET 14.378659 0.000000 0.000000
       CHANNELS 3 Yrotation Xrotation Zrotation
       JOINT LeftElbow
       {
        OFFSET 30.778728 0.000000 0.000000
        CHANNELS 3 Yrotation Xrotation Zrotation
        JOINT LeftWrist
        {
         OFFSET 25.164217 0.000000 0.000000
         CHANNELS 3 Yrotation Xrotation Zrotation
         End Site
         {
          OFFSET 18.796788 0.000000 0.000000
         }
        }
       }
      }
     }
    }
   }
  }
 }
 JOINT RightHip
 {
  OFFSET -8.194923 0.005295 0.000540
  CHANNELS 3 Yrotation Xrotation Zrotation
  JOINT RightKnee
  {
   OFFSET 0.000000 -42.473320 -0.000511
   CHANNELS 3 Yrotation Xrotation Zrotation
   JOINT RightAnkle
   {
    OFFSET 0.000000 -41.474259 -0.000865
    CHANNELS 3 Yrotation Xrotation Zrotation
    JOINT RightToe
    {
     OFFSET 0.000000 -7.354994 16.712725
     CHANNELS 3 Yrotation Xrotation Zrotation
     End Site
     {
      OFFSET 0.000000 -1.553903 6.764158
     }
    }
   }
  }
 }
 JOINT LeftHip
 {
  OFFSET 8.194923 0.005295 0.000540
  CHANNELS 3 Yrotation Xrotation Zrotation
  JOINT LeftKnee
  {
   OFFSET 0.000000 -42.473320 -0.000511
   CHANNELS 3 Yrotation Xrotation Zrotation
   JOINT LeftAnkle
   {
    OFFSET 0.000000 -41.474259 -0.000865
    CHANNELS 3 Yrotation Xrotation Zrotation
    JOINT LeftToe
    {
     OFFSET 0.000000 -7.354994 16.712725
     CHANNELS 3 Yrotation Xrotation Zrotation
     End Site
     {
      OFFSET 0.000000 -1.553903 6.764158
     }
    }
   }
  }
 }
}
MOTION
Frames: 14
Frame Time: 0.016667
0.000000 91.111157 0.000000 0.000000 -5.826342 0.000000 0.000000 11.116423 0.000000 0.000000 -5.290081 0.000000 0.000000 0.000000 0.000000 0.000000 0.000000 0.000000 0.000000 12.665069 0.000000 0.000000 0.575450 0.000000 0.000000 0.000000 0.000000 0.000000 0.000000 0.000000 2.337306 0.000000 0.000000 -2.337306 0.000000 0.000000 0.000000 0.000000 0.000000 0.000000 0.000000 0.000000 -2.337306 0.000000 0.000000 2.337306 0.000000 0.000000 0.000000 8.578828 0.000000 0.000000 1.905768 0.000000 0.000000 -4.658254 0.000000 0.000000 0.000000 0.000000 0.000000 8.578828 0.000000 0.000000 1.905768 0.000000 0.000000 -4.658254 0.000000 0.000000 0.000000 0.000000
49.582915 92.662641 18.326736 178.856240 -3.117840 -1.298687 4.142685 2.793553 0.390000 1.859403 1.250213 0.086029 1.859403 1.250213 0.086029 1.394321 0.937931 0.060716 -4.453707 17.795322 2.287989 -8.972444 -2.829127 5.706180 -9.598333 -2.211736 13.524898 5.860954 -0.753543 59.809461 26.708071 38.378615 17.005482 -4.520078 19.009862 -28.478232 -12.055441 -3.337372 -10.584519 -6.611730 -12.552044 -70.148566 -19.130448 49.441513 -18.508378 13.525951 21.148038 23.048209 3.315309 6.529617 -1.276714 -3.787757 1.845656 1.081283 -2.879341 -4.045281 3.219885 -0.115451 0.135392 -0.065810 5.496958 8.621901 6.643809 7.419493 2.353520 -0.682678 6.226469 -5.965334 -5.770946 0.064294 -0.226458 0.058035
49.584129 92.660146 18.265521 178.851249 -3.132755 -1.303322 4.143772 2.793832 0.387891 1.860120 1.250124 0.084282 1.860120 1.250124 0.084282 1.394862 0.937860 0.059404 -4.645577 17.776200 2.361823 -9.351454 -2.839941 5.906908 -9.578187 -2.220943 13.525176 5.901362 -0.746822 59.768892 26.745113 38.420003 17.061959 -4.496261 19.005779 -28.498186 -12.041874 -3.320041 -10.575841 -6.614601 -12.538034 -70.158331 -19.088954 49.405749 -18.469500 13.527068 21.130178 23.041057 3.355799 6.558272 -1.276945 -3.811538 1.901415 1.098934 -2.890202 -4.098784 3.218800 -0.113906 0.133099 -0.064150 5.520954 8.645164 6.668170 7.418603 2.413983 -0.687947 6.200275 -6.017846 -5.792735 0.061859 -0.230575 0.055697
49.587940 92.658053 18.199778 178.843973 -3.163105 -1.309336 4.154637 2.800930 0.381495 1.864752 1.253044 0.081512 1.864752 1.253044 0.081512 1.398341 0.940042 0.057308 -4.795047 17.747371 2.430109 -9.651429 -2.872390 6.084342 -9.565154 -2.242468 13.548299 5.939081 -0.714181 59.714951 26.794549 38.474049 17.116854 -4.465418 18.970902 -28.501832 -12.043529 -3.295855 -10.564469 -6.627251 -12.538545 -70.158003 -19.026349 49.376845 -18.425651 13.515062 21.120256 23.019537 3.407236 6.607327 -1.272740 -3.841299 1.951180 1.116203 -2.901446 -4.146069 3.217147 -0.113563 0.126212 -0.062658 5.542849 8.695799 6.693901 7.426385 2.456853 -0.696795 6.199052 -6.060020 -5.816078 0.061748 -0.235896 0.055533
49.587449 92.655279 18.132806 178.856520 -3.190667 -1.315930 4.167200 2.806119 0.380348 1.869441 1.254656 0.083777 1.869441 1.254656 0.083777 1.401853 0.941259 0.058993 -4.909559 17.713872 2.483108 -9.882475 -2.917859 6.222656 -9.551771 -2.263077 13.554981 5.963555 -0.673964 59.664197 26.850550 38.525727 17.181188 -4.442875 18.938043 -28.498878 -12.070311 -3.285902 -10.568522 -6.627438 -12.530250 -70.151934 -18.946950 49.347835 -18.390470 13.486146 21.123123 22.996093 3.427422 6.647704 -1.256066 -3.857667 2.017846 1.098451 -2.918582 -4.205665 3.238492 -0.112266 0.120648 -0.062816 5.556372 8.747044 6.724163 7.431008 2.491841 -0.714926 6.178657 -6.102056 -5.831129 0.059343 -0.237058 0.054411
49.584358 92.652308 18.070730 178.847741 -3.217214 -1.321112 4.181347 2.805292 0.388465 1.876114 1.255063 0.087074 1.876114 1.255063 0.087074 1.406850 0.941575 0.061450 -4.990605 17.676444 2.514599 -10.045214 -2.975842 6.310848 -9.541835 -2.279262 13.558407 5.994400 -0.628235 59.603005 26.914029 38.571701 17.258713 -4.433917 18.896786 -28.510725 -12.093330 -3.267752 -10.573830 -6.634543 -12.523227 -70.159840 -18.870723 49.335113 -18.349716 13.447721 21.106348 22.968982 3.478522 6.681330 -1.247780 -3.897458 2.086792 1.096473 -2.925090 -4.266867 3.251979 -0.109968 0.120156 -0.062289 5.569402 8.790997 6.744962 7.454345 2.539034 -0.725600 6.151727 -6.147708 -5.848343 0.057053 -0.240260 0.054895
49.585518 92.650606 18.008119 178.820001 -3.250609 -1.324335 4.200303 2.807456 0.399780 1.884912 1.256220 0.090967 1.884912 1.256220 0.090967 1.413440 0.942456 0.064348 -5.036391 17.640111 2.536917 -10.139987 -3.036135 6.370506 -9.523647 -2.298903 13.567020 6.027905 -0.578039 59.516341 26.989923 38.643215 17.368650 -4.391860 18.837251 -28.536439 -12.098687 -3.262206 -10.581181 -6.624598 -12.488204 -70.169707 -18.837841 49.319760 -18.332838 13.443773 21.092441 22.957485 3.555369 6.725701 -1.236501 -3.930717 2.143677 1.097809 -2.945342 -4.319622 3.257773 -0.107244 0.119428 -0.059868 5.629100 8.838881 6.774132 7.451963 2.589350 -0.745979 6.168416 -6.188646 -5.866630 0.055967 -0.245839 0.055741
49.583133 92.648919 17.950329 178.800739 -3.276263 -1.324211 4.211230 2.813357 0.409206 1.889952 1.258929 0.094643 1.889952 1.258929 0.094643 1.417212 0.944500 0.067086 -5.058628 17.597216 2.546296 -10.187717 -3.112280 6.399275 -9.515226 -2.333416 13.573726 6.091222 -0.518594 59.429570 27.037268 38.696904 17.456787 -4.293087 18.797019 -28.579631 -12.108851 -3.265592 -10.581272 -6.627594 -12.468230 -70.169114 -18.807709 49.304292 -18.317939 13.433677 21.083114 22.943212 3.621884 6.757895 -1.224015 -3.969655 2.202619 1.082169 -2.958085 -4.368189 3.277775 -0.105551 0.118378 -0.060653 5.656932 8.877839 6.788848 7.476504 2.638783 -0.751863 6.165016 -6.225059 -5.888698 0.053786 -0.251042 0.055295
49.582706 92.648488 17.897860 178.795358 -3.305004 -1.323702 4.210019 2.821595 0.421110 1.889106 1.263415 0.098280 1.889106 1.263415 0.098280 1.416569 0.947876 0.069802 -5.061748 17.561391 2.545116 -10.196147 -3.178396 6.401633 -9.506443 -2.374880 13.603376 6.171965 -0.440914 59.321643 27.120007 38.793125 17.578837 -4.251455 18.712092 -28.610679 -12.101786 -3.274963 -10.569465 -6.627273 -12.455554 -70.180780 -18.774642 49.288198 -18.304940 13.416906 21.084703 22.934237 3.679404 6.796133 -1.220156 -4.006373 2.253702 1.080262 -2.970647 -4.408461 3.291811 -0.103227 0.115407 -0.060992 5.659898 8.901965 6.799181 7.497078 2.715359 -0.747742 6.147935 -6.268900 -5.914734 0.052412 -0.258299 0.054882
49.581342 92.646718 17.844266 178.799394 -3.327276 -1.316694 4.207054 2.822222 0.433450 1.887046 1.263256 0.102393 1.887046 1.263256 0.102393 1.415016 0.947769 0.072892 -5.050707 17.534465 2.530173 -10.173140 -3.230960 6.373110 -9.479243 -2.400278 13.612127 6.217874 -0.349930 59.210982 27.244039 38.889549 17.725796 -4.203619 18.627415 -28.601488 -12.111303 -3.270048 -10.579360 -6.619971 -12.439328 -70.191813 -18.734827 49.291380 -18.270869 13.398583 21.095238 22.939464 3.712407 6.839753 -1.222264 -4.047905 2.287293 1.075855 -2.970933 -4.445853 3.304634 -0.103389 0.116255 -0.060556 5.653008 8.917865 6.798332 7.518109 2.797048 -0.745653 6.169555 -6.315127 -5.938551 0.053506 -0.262288 0.053515
49.582994 92.645092 17.794327 178.817440 -3.349799 -1.312718 4.193686 2.826600 0.451071 1.881193 1.265591 0.109103 1.881193 1.265591 0.109103 1.410612 0.949540 0.077928 -5.035424 17.507440 2.503537 -10.138398 -3.285388 6.321656 -9.409501 -2.437688 13.615602 6.246359 -0.259904 59.093964 27.335085 38.995065 17.870571 -4.121083 18.520375 -28.600288 -12.083700 -3.276674 -10.591322 -6.620182 -12.434132 -70.195359 -18.726209 49.303632 -18.272521 13.375392 21.096123 22.922803 3.711170 6.864779 -1.213038 -4.062766 2.353709 1.049973 -2.978047 -4.497468 3.323345 -0.103621 0.117429 -0.057134 5.654014 8.935375 6.815229 7.524651 2.865976 -0.759190 6.175786 -6.352430 -5.953482 0.052834 -0.265396 0.049702
49.587694 92.643394 17.745392 178.822516 -3.369526 -1.323618 4.189360 2.837616 0.491070 1.879256 1.271243 0.118290 1.879256 1.271243 0.118290 1.409138 0.953807 0.084805 -5.015747 17.482291 2.462456 -10.090532 -3.338313 6.241950 -9.378391 -2.487373 13.596104 6.310193 -0.167656 58.972895 27.435241 39.072890 18.026356 -4.002728 18.424842 -28.622220 -12.088726 -3.308222 -10.604083 -6.610335 -12.436788 -70.203191 -18.720916 49.311139 -18.285026 13.367064 21.100252 22.932836 3.738850 6.898345 -1.195083 -4.084664 2.393687 1.050871 -2.989574 -4.555747 3.327743 -0.105022 0.139424 -0.057536 5.680725 8.951643 6.849227 7.535156 2.925156 -0.772366 6.161128 -6.368156 -5.968310 0.049057 -0.285281 0.047157
49.592983 92.641754 17.697436 178.813901 -3.383804 -1.310053 4.200380 2.847397 0.505164 1.883551 1.275294 0.124087 1.883551 1.275294 0.124087 1.412346 0.956864 0.089131 -4.998960 17.467369 2.420978 -10.046954 -3.372023 6.161457 -9.385326 -2.524535 13.594889 6.400580 -0.075823 58.878572 27.521954 39.151262 18.162109 -3.913864 18.351947 -28.645429 -12.113916 -3.323562 -10.596028 -6.617647 -12.450107 -70.219232 -18.711861 49.292992 -18.285615 13.341535 21.112752 22.941145 3.773338 6.917129 -1.200448 -4.088061 2.447757 1.050508 -3.016852 -4.601558 3.326656 -0.103166 0.144397 -0.053135 5.717353 8.972305 6.866043 7.551376 2.973521 -0.794315 6.122102 -6.398092 -5.985940 0.048966 -0.287535 0.050308
49.598445 92.639998 17.650663 178.808283 -3.397331 -1.285321 4.211055 2.858269 0.506139 1.887826 1.279905 0.132412 1.887826 1.279905 0.132412 1.415534 0.960349 0.095352 -4.981636 17.454474 2.373056 -10.000023 -3.402675 6.068705 -9.387592 -2.550821 13.592053 6.433246 0.002107 58.788106 27.607699 39.187071 18.259724 -3.848785 18.289811 -28.621372 -12.141316 -3.353492 -10.587503 -6.641251 -12.447313 -70.249402 -18.739554 49.297131 -18.307479 13.328130 21.123168 22.944860 3.822647 6.954428 -1.216842 -4.121096 2.462801 1.051640 -3.034043 -4.605436 3.326380 -0.099068 0.126495 -0.049729 5.725222 8.999778 6.858631 7.582590 3.010443 -0.799949 6.090448 -6.437829 -6.008516 0.051604 -0.272531 0.051288
